<svg xmlns="http://www.w3.org/2000/svg" viewBox="0 0 64 64">
  <defs>
    <radialGradient id="bg" cx="50%" cy="38%" r="70%">
      <stop offset="0%" stop-color="#c6bc7a" />
      <stop offset="45%" stop-color="#86764e" />
      <stop offset="100%" stop-color="#454b41" />
    </radialGradient>
  </defs>
  <rect width="64" height="64" fill="url(#bg)" rx="10" ry="10" />
  <path
    d="M11 34c-2.5-8 0-16 7-21 5.5-4.2 13.6-6.1 21.3-5 9.2 1.3 16.8 6.1 20.1 13.2 2.4 5 2.1 11-1.1 15.7-4.4 6.4-11.9 9.7-22.3 9.7-9.9 0-18.3-4-21-12.6Z"
    fill="#2b3a25" />
  <path
    d="M17 33.6c-1.2-6.2 1.8-11.9 6.8-15.9 4.4-3.4 10.5-4.8 16.5-4 7.1 1 13 4.7 15.6 10.3 1.8 4 1.5 8.6-.9 12.2-3.4 4.9-9.2 7.3-17.5 7.3-7.8 0-14.6-3.2-18.1-9.9-.8-1.2-1.2-2.6-1.4-4Z"
    fill="#929a50"
    opacity=".62" />
  <path
    d="M30.5 46.3c-1.1-6.1-.6-13.2 1.5-21.1.8-3.4 2.3-4.6 3.9.2 2.2 7.8 2.8 14.8.8 20.8-1.4 1.8-4.7 1.8-6.2.1Z"
    fill="#5e3a1e" />
  <path
    d="M32.7 45.8c-.9-5.4-.4-10.8 1-18.5.5-2.4 1.2-2.8 1.9-.1 1.2 7.1 1.4 12.7-.1 18-1 1.2-2.2 1.3-2.8.6Z"
    fill="#b98a46" />
  <g fill="none" stroke-linecap="round" stroke-linejoin="round">
    <path
      d="M34 45.5c-.5-5-.4-9.7.2-14.3M34 33.7c-4.8-4.9-9.3-8.6-15.2-11.8M34.2 32.4c5.4-4.4 10.2-8 15.9-11.2M34.4 27.8c-3-4.4-5.5-8.2-7.4-12.4M34.8 28.1c4-4.7 7-8.6 8.9-12.3"
      stroke="#5e3a1e"
      stroke-width="3.2" />
    <path
      d="M34 45.9c-3.5 3.5-8.1 6.5-13.6 9.2M34.1 46c3.9 3.4 8.1 6.3 13.5 9M33 46.5c-4.7 1.3-9.2 2-15.4 3.7M35.2 46.5c4.8 1.4 9.4 2.1 15.7 3.8M34 46.5c0 4.5-.6 8.5-2.2 12.5M34 46.4c2 4.1 3.8 8 5.4 12.2M33.3 46.4c-3.1 4-5.8 7.8-9.1 12.3M34.6 46.4c3.5 4.2 6.1 8.1 9.4 12.2"
      stroke="#5e3a1e"
      stroke-width="2.7" />
    <path
      d="M34.1 32.9c-3.9-4.1-7.5-7.1-12.2-9.8M34.3 31.9c4.5-3.8 8.5-6.9 13-9.6M34.3 46.1c-3.1 3.2-7 5.8-11.6 8.4M34.3 46.2c3.3 3 7 5.6 11.4 8.2"
      stroke="#b98a46"
      stroke-width="1.2" />
  </g>
  <g fill="#dbd39b">
    <path d="M17.4 17.6c1.8-3 5.8-3 7.6-.3-1.8 2.5-5.8 2.7-7.6.3Z" />
    <path d="M26.6 12.8c1.8-3 5.8-3 7.6-.3-1.8 2.5-5.8 2.7-7.6.3Z" />
    <path d="M40.5 13.4c1.8-3 5.8-3 7.6-.3-1.8 2.5-5.8 2.7-7.6.3Z" />
    <path d="M48.6 20.1c1.8-3 5.8-3 7.6-.3-1.8 2.5-5.8 2.7-7.6.3Z" />
    <path d="M14.8 28.4c1.8-3 5.8-3 7.6-.3-1.8 2.5-5.8 2.7-7.6.3Z" />
    <path d="M48 31c1.8-3 5.8-3 7.6-.3-1.8 2.5-5.8 2.7-7.6.3Z" />
  </g>
  <g>
    <g transform="translate(18.6 31.3)">
      <ellipse rx="4.3" ry="4.6" fill="#b43a2e" />
      <ellipse cx="-1.1" cy="-1.7" rx="1.2" ry="1.6" fill="#fff2c6" opacity=".28" />
      <path d="M0-5c0-1.7 1-2.8 2.8-3.6" fill="none" stroke="#5e3a1e" stroke-linecap="round" stroke-width="1.1" />
    </g>
    <g transform="translate(29.3 22.7)">
      <path d="M0-5.2c3-0.4 5 2 4.7 4.9.5 3.2-1.6 6-4.7 6.4-3.2-.5-5.2-3.3-4.6-6.4-.3-2.8 1.7-5.3 4.6-4.9Z" fill="#b2a94a" />
      <ellipse cx="-1.4" cy="-1.8" rx="1.2" ry="1.7" fill="#fff2c6" opacity=".24" />
      <path d="M0-5.4c0-1.8.9-3 2.5-3.9" fill="none" stroke="#5e3a1e" stroke-linecap="round" stroke-width="1.1" />
    </g>
    <g transform="translate(46.7 21.3)">
      <ellipse rx="4.4" ry="4.7" fill="#d18a26" />
      <ellipse cx="-1.2" cy="-1.7" rx="1.2" ry="1.6" fill="#fff2c6" opacity=".28" />
      <path d="M0-5.2c0-1.8.9-2.9 2.6-3.8" fill="none" stroke="#5e3a1e" stroke-linecap="round" stroke-width="1.1" />
    </g>
    <g transform="translate(46 32.6)">
      <ellipse rx="4.5" ry="4.5" fill="#d98c56" />
      <ellipse cx="-1.2" cy="-1.5" rx="1.2" ry="1.5" fill="#fff2c6" opacity=".24" />
      <path d="M0-5c0-1.7.9-2.8 2.6-3.6" fill="none" stroke="#5e3a1e" stroke-linecap="round" stroke-width="1.1" />
    </g>
  </g>
</svg>
